<?xml version="1.0" encoding="utf-8"?>
<!-- Generator: Adobe Illustrator 16.0.4, SVG Export Plug-In . SVG Version: 6.00 Build 0)  -->
<!DOCTYPE svg PUBLIC "-//W3C//DTD SVG 1.1//EN" "http://www.w3.org/Graphics/SVG/1.1/DTD/svg11.dtd">
<svg version="1.1" id="Layer_1" xmlns="http://www.w3.org/2000/svg" xmlns:xlink="http://www.w3.org/1999/xlink" x="0px" y="0px"
	 width="620.229px" height="73.393px" viewBox="0 0 620.229 73.393" enable-background="new 0 0 620.229 73.393"
	 xml:space="preserve">
<polygon fill="#FFFFFF" points="322.787,0.001 298.442,0.001 298.442,6.104 316.656,6.104 316.656,12.228 298.442,12.228 
	298.442,18.35 316.656,18.35 316.664,71.93 322.787,71.93 "/>
<polygon fill="#FFFFFF" points="353.255,6.104 353.255,0.003 328.909,0.003 328.909,71.93 335.013,71.93 335.03,18.35 
	353.255,18.35 353.255,12.228 335.027,12.228 335.027,6.104 "/>
<rect x="174.252" fill="#FFFFFF" width="6.104" height="71.93"/>
<polygon fill="#FFFFFF" points="192.599,65.809 192.599,59.684 222.014,59.684 222.014,53.563 192.599,53.563 192.599,45.159 
	212.795,45.159 212.795,39.034 192.599,39.034 192.599,32.915 212.795,32.915 212.795,26.813 192.599,26.813 192.599,18.35 
	222.014,18.35 222.014,12.245 192.599,12.245 192.599,6.125 222.014,6.125 222.014,0.001 192.578,0.001 186.478,0.001 
	186.476,0.001 186.476,71.93 186.478,71.93 222.014,71.93 222.014,65.809 "/>
<rect x="572.471" fill="#FFFFFF" width="6.103" height="71.93"/>
<polygon fill="#FFFFFF" points="590.814,65.809 590.814,59.684 620.229,59.684 620.229,53.563 590.814,53.563 590.795,0.001 
	584.694,0.001 584.691,0.001 584.691,71.93 584.694,71.93 620.229,71.93 620.229,65.809 "/>
<rect x="111.004" fill="#FFFFFF" width="6.103" height="71.93"/>
<polygon fill="#FFFFFF" points="129.352,45.159 149.548,45.159 149.548,39.039 129.352,39.039 129.352,32.913 149.548,32.913 
	149.548,26.811 129.352,26.811 129.352,18.349 158.767,18.349 158.767,12.246 129.352,12.246 129.352,6.123 158.767,6.123 
	158.767,0.003 129.331,0.003 123.231,0.003 123.229,0.003 123.229,71.93 123.231,71.93 129.336,71.93 "/>
<rect x="370.353" fill="#FFFFFF" width="40.863" height="6.104"/>
<path fill="#FFFFFF" d="M393.854,53.623h-6.126V18.349h6.126V53.623z M411.216,18.349v-6.102h-40.86v6.102h11.271v35.273h-11.271
	v6.101h40.86v-6.101h-11.262V18.349H411.216z"/>
<rect x="370.353" y="65.829" fill="#FFFFFF" width="40.863" height="6.102"/>
<rect x="370.353" y="65.829" fill="#FFFFFF" width="40.863" height="6.102"/>
<path fill="#FFFFFF" d="M261.037,43.809c5.43,2.547,8.725,4.271,8.725,6.733c0,3.856-1.646,5.505-5.505,5.505
	c-6.853,0-9.649-7.705-10.688-12.09l-5.231,3.307c1.485,5.033,5.692,14.887,15.919,14.887c7.27,0,11.607-4.341,11.607-11.608
	c0-6.519-6.219-9.433-12.235-12.261c-7.53-3.529-15.315-7.184-15.315-17.362c0-8.446,6.41-14.815,14.91-14.815
	c13.39,0,18.046,13.122,18.046,13.122l4.85-3.101l-1.14-2.425c-4.145-8.833-11.871-13.699-21.756-13.699
	c-11.782,0-21.014,9.189-21.014,20.918C242.21,34.976,253.091,40.082,261.037,43.809"/>
<path fill="#FFFFFF" d="M238.622,53.411c1.938,6.193,8.181,19.982,25.312,19.982c14.651,0,24.117-9.246,24.117-23.553
	c0-12.996-10.734-18.14-18.571-21.896c-5.941-2.848-9.548-4.781-9.548-7.628c0-1.749,1.337-2.97,3.25-2.97
	c5.086,0,7.948,8.275,7.948,8.275l5.24-3.341c0,0-3.812-11.035-13.188-11.035c-5.331,0-9.353,3.9-9.353,9.071
	c0,6.895,6.617,10.067,13.013,13.131c7.769,3.723,15.106,7.24,15.106,16.393c0,10.926-6.735,17.449-18.015,17.449
	c-13.175,0-18.295-11.643-19.997-17.241L238.622,53.411z"/>
<polygon fill="#FFFFFF" points="425.238,0.029 431.665,0.001 455.601,71.907 449.193,71.979 "/>
<polygon fill="#FFFFFF" points="492.28,0.01 485.868,0.01 465.117,62.323 461.971,52.946 479.593,0.005 473.158,0.005 
	458.739,43.325 444.197,0.001 437.775,0.03 461.729,71.866 468.241,71.866 468.328,71.895 "/>
<polygon fill="#FFFFFF" points="490.59,71.95 497.017,71.979 520.952,0.072 514.545,0.001 "/>
<path fill="#FFFFFF" d="M524.091,28.655l3.774,11.336h-7.578L524.091,28.655z M530.469,9.653l10.103,30.338h-6.276l-6.976-20.957
	L530.469,9.653z M516.196,52.174l2.039-6.081l30.77-0.01l-15.325-46l-0.087,0.03h-6.514l-23.952,71.839l6.42,0.025l4.603-13.703
	h19.8l4.558,13.699h6.437l-4.562-13.699h6.278l4.561,13.695h6.412l-6.593-19.785L516.196,52.174z"/>
<polygon fill="#FFFFFF" points="44.056,59.3 44.056,0.066 37.953,0.066 37.953,35.485 18.539,0.066 11.578,0.066 "/>
<polygon fill="#FFFFFF" points="4.625,0.066 0,0.066 0,71.997 6.103,71.997 6.103,15.453 12.224,26.624 12.224,71.997 
	18.327,71.997 18.327,37.752 37.067,71.997 44.056,71.997 "/>
<polygon fill="#FFFFFF" points="50.178,0.066 50.185,71.997 56.281,71.997 56.281,0.066 "/>
<rect x="67.551" y="26.868" fill="#FFFFFF" width="29.367" height="6.102"/>
<rect x="67.551" y="39.092" fill="#FFFFFF" width="29.367" height="6.102"/>
</svg>
