<?xml version="1.0" encoding="utf-8"?>
<!-- Generator: Adobe Illustrator 19.0.0, SVG Export Plug-In . SVG Version: 6.00 Build 0)  -->
<svg version="1.1" id="Laag_1" xmlns="http://www.w3.org/2000/svg" xmlns:xlink="http://www.w3.org/1999/xlink" x="0px" y="0px"
	 viewBox="0 0 24.6 39.8" style="enable-background:new 0 0 24.6 39.8;" xml:space="preserve">
<style type="text/css">
	.st0{opacity:0.85;fill:#010202;}
	.st1{fill:#FFFFFF;}
</style>
<path id="XMLID_914_" class="st0" d="M0.5,11.9c0-0.6,0.1-1.3,0.2-1.9C1.4,7.1,3,4.8,5.4,3c1.9-1.3,4-2,6.2-2.1c0,0,0,0,0.1,0
	c0.4,0,0.8,0,1.1,0c0,0,0,0,0.1,0c0.4,0,0.9,0.1,1.3,0.1c1.4,0.2,2.7,0.6,3.9,1.3c1.7,0.9,3.1,2.2,4.2,3.8c1.2,1.8,1.8,3.7,1.9,5.8
	c0,0.9,0,1.8-0.2,2.7c-0.2,0.9-0.5,1.8-0.9,2.6c-0.7,1.4-1.4,2.8-2.3,4.2c-0.8,1.2-1.6,2.4-2.4,3.7c-1.3,2.1-2.6,4.2-3.6,6.5
	c-1,2.3-1.8,4.6-2.3,7c0,0.1-0.1,0.2-0.1,0.4c0,0,0,0,0,0c-0.2-0.7-0.3-1.5-0.5-2.2c-0.7-2.7-1.8-5.2-3.1-7.6
	c-0.9-1.7-1.8-3.2-2.9-4.8c-1.3-2-2.6-4.1-3.8-6.2c-0.8-1.5-1.4-3.1-1.5-4.8C0.6,13.2,0.5,11.9,0.5,11.9z"/>
<path id="XMLID_80_" class="st1" d="M17.4,19.7c-0.4,0-0.7,0-1.1,0c0-4.3,0-8.6,0-13c0.4,0,0.7,0,1.1,0C17.4,11,17.4,15.3,17.4,19.7
	z"/>
<path id="XMLID_227_" class="st1" d="M12.2,14.3c-0.8-1.5-1.7-3-2.5-4.5c-0.5-1-1.1-2-1.6-3c0,0,0-0.1-0.1-0.1H7.2
	c0,0.1,0,0.1,0,0.2c0,4.2,0,8.4,0,12.6c0,0,0,0.1,0,0.1c0,0,0,0.1,0,0.1h1.1c0-3.4,0-6.8,0-10.1c0,0,0.1,0,0.1,0.1
	c0.3,0.6,0.6,1.2,1,1.7c0.1,0.1,0.1,0.2,0.1,0.3c0,2.6,0,5.2,0,7.8c0,0.1,0,0.1,0,0.2h1.1c0-2,0-4,0-6.1c0.1,0.1,0.1,0.1,0.1,0.2
	c0.3,0.5,0.6,1,0.8,1.5c0.8,1.4,2.3,4.2,2.3,4.4h1.3c-0.3-0.5-0.5-0.9-0.7-1.3C13.7,17,13,15.6,12.2,14.3z"/>
<path id="XMLID_228_" class="st1" d="M14.1,13C14.1,13,14.1,13,14.1,13c-0.6-1-1.2-2-1.7-3.1c-0.6-1.1-1.2-2.1-1.7-3.2
	c0-0.1-0.1-0.1-0.1-0.1H9.3c2,3.6,3.9,7.1,5.8,10.6c0,0,0,0,0,0c0-3.5,0-7.1,0-10.6c-0.4,0-0.7,0-1.1,0C14.1,8.8,14.1,10.9,14.1,13z
	"/>
</svg>
